<svg width="45" height="45" fill="none" xmlns="http://www.w3.org/2000/svg"><rect x="1" y="1.256" width="42.687" height="42.687" rx="9" stroke="#219B44" stroke-width="2"/><path d="M26.466 34.753H18.94c-.053-.016-.106-.04-.16-.045-.59-.067-1.18-.12-1.769-.198-2.28-.303-4.338-2.248-4.704-4.52a30.542 30.542 0 01-.35-3.424c-.082-1.726-.084-3.456-.12-5.185 0-.03.01-.062.018-.115.078.021.146.038.213.057.894.249 1.755.206 2.55-.318.154-.102.25-.09.402.004 1.194.733 2.405.84 3.616.04.131-.088.2-.031.297.033.768.506 1.605.724 2.505.494.448-.114.87-.336 1.302-.508.014-.04.048-.018.081.004 1.168.782 2.359.787 3.552.077.21-.124.334-.136.55-.007 1.17.7 2.328.565 3.45-.125.173-.107.276-.104.444.005a2.65 2.65 0 001.836.422c.301-.041.6-.104.921-.161v.295c.005 2.187-.01 4.373-.23 6.55-.075.736-.139 1.484-.325 2.195-.639 2.442-2.711 4.094-5.278 4.282-.427.032-.852.098-1.277.148zM21.7 28.098c-.26-.243-.497-.455-.724-.678-.233-.227-.456-.467-.686-.698-.545-.547-1.338-.563-1.876-.04-.532.517-.521 1.277.032 1.848.754.779 1.507 1.558 2.272 2.327.146.146.326.284.516.355.541.201 1.02.07 1.42-.35 1.44-1.511 2.881-3.02 4.323-4.529.545-.57.541-1.341-.013-1.87-.555-.53-1.325-.506-1.867.06-.636.667-1.268 1.336-1.902 2.004l-1.494 1.57H21.7zm13.512-12.295v.783c-.05.37-.112.737-.147 1.107-.108 1.14-.717 1.916-1.73 2.387-.905.421-1.863.276-2.393-.524-.116-.177-.359-.194-.542-.06-.085.062-.156.143-.231.217-.91.885-2.378 1.072-3.2-.074-.13-.182-.387-.183-.562-.028-.116.103-.215.223-.33.327-.854.77-2.04.754-2.84-.034-.35-.346-.697-.347-1.04-.003-.867.869-2.162.793-3.069-.18-.303-.324-.49-.315-.773.02-.454.54-1.027.775-1.733.671-.588-.087-1.064-.377-1.476-.793-.298-.3-.505-.286-.76.042a1.585 1.585 0 01-1.211.642c-1.197.061-2.493-.918-2.73-2.093-.122-.605-.16-1.226-.244-1.84-.056-.417.073-.74.373-1.05 1.671-1.733 3.454-3.344 5.292-4.894.568-.48 1.233-.696 1.981-.695 3.232.007 6.464.009 9.696 0a3.086 3.086 0 012.083.755c1.718 1.465 3.398 2.972 4.972 4.593.22.227.41.482.614.724z" fill="#219B44"/></svg>