<svg width="45" height="45" fill="none" xmlns="http://www.w3.org/2000/svg"><rect x="1" y="1" width="43" height="43" rx="9" stroke="#219B44" stroke-width="2"/><g clip-path="url(#clip0_54_1876)" fill="#219B44"><path d="M21.407 36.914c-.515-.082-1.032-.155-1.545-.248a14.15 14.15 0 01-5.313-2.142 3.649 3.649 0 00-.19-.12c-.016-.008-.04 0-.089 0 0 .156.003.314 0 .47a1.014 1.014 0 01-1.027 1.01c-.57 0-1.023-.436-1.027-1.008-.005-1.04-.005-2.08 0-3.119a.996.996 0 011.018-1.014 294.53 294.53 0 013.118 0 1.007 1.007 0 011.005 1.03 1.013 1.013 0 01-1.012 1.024c-.171.003-.342 0-.61 0 .168.115.262.188.365.249 2.253 1.331 4.675 1.952 7.3 1.76 5.481-.403 10.117-4.442 11.173-9.785.156-.794.2-1.611.263-2.42.045-.578.315-.991.797-1.104.481-.112.916.109 1.193.603.02.033.05.059.075.089v1.35c-.021.104-.047.206-.062.31-.078.529-.125 1.063-.233 1.584-.515 2.469-1.599 4.663-3.269 6.554-2.182 2.471-4.89 4.044-8.134 4.669-.554.107-1.116.172-1.674.257h-2.122zm9.323-26.277c0-.17-.004-.337 0-.504.014-.57.463-1 1.04-.995a1.005 1.005 0 011.013.99c.008 1.05.007 2.1 0 3.15a.998.998 0 01-1 1.001c-1.05.007-2.1.008-3.15 0-.566-.004-.996-.469-.99-1.043a1.01 1.01 0 01.992-1.01c.182-.004.364 0 .626 0-.122-.093-.185-.151-.257-.195-2.266-1.39-4.72-1.993-7.377-1.818-5.225.346-9.713 4.078-11.05 9.138a13.393 13.393 0 00-.42 3.107c-.016.655-.439 1.09-1.052 1.083-.584-.009-1.003-.466-1.005-1.097-.015-5.83 3.674-11.213 9.13-13.342a14.375 14.375 0 016.193-.973c2.55.159 4.893.96 7.024 2.374.062.041.125.083.189.12.016.01.039.007.093.014z"/><path d="M14.271 18.395c.134.052.242.09.346.136 2.36 1.048 4.719 2.102 7.083 3.143.22.096.292.209.292.448-.01 2.763-.006 5.525-.006 8.287v.329c-.228-.097-.431-.18-.631-.27-2.096-.937-4.188-1.883-6.29-2.808-.559-.246-.805-.621-.801-1.24.018-2.548.007-5.096.007-7.645v-.38zm16.457 0v4.251c0 1.307-.005 2.614.002 3.922.003.47-.194.816-.612 1.004-2.318 1.044-4.64 2.077-6.962 3.113-.036.016-.077.023-.142.041v-.272l-.001-8.359c0-.165 0-.288.199-.375 2.455-1.08 4.904-2.173 7.356-3.263.037-.017.077-.03.16-.063v.001zm-.537-.883l-5.189 2.305c-.75.334-1.499.676-2.255 1-.121.052-.3.074-.415.023-2.465-1.084-4.924-2.18-7.385-3.275-.025-.012-.047-.031-.107-.07.198-.091.368-.172.54-.246 2.188-.943 4.378-1.884 6.564-2.83.353-.153.688-.182 1.05-.025 2.332 1.01 4.668 2.013 7.002 3.018.046.02.09.046.196.1z"/></g><defs><clipPath id="clip0_54_1876"><path fill="#fff" transform="translate(8.1 8.1)" d="M0 0h28.8v28.815H0z"/></clipPath></defs></svg>