<svg width="45" height="45" fill="none" xmlns="http://www.w3.org/2000/svg"><rect x="1" y="1" width="43" height="43" rx="9" stroke="#219B44" stroke-width="2"/><g clip-path="url(#clip0_54_1889)" fill="#219B44"><path d="M38 27.713c-.06.206-.11.415-.18.617-.355 1.038-1.028 1.833-2.077 2.267-1.936.802-3.891 1.563-5.842 2.333a1.332 1.332 0 01-.478.068c-6.552.003-13.105.005-19.657.002C8.11 32.998 7.003 31.925 7 30.337v-2.714c0-.578.216-.798.805-.803.768-.006 1.538-.007 2.306 0 .549.006.777.225.786.755.01.554.002 1.107.002 1.69h4.493v-2.829c0-.663.196-.848.902-.86.111 0 .223-.009.359-.015v-1.864c-.787-.137-1.51-.42-2.139-.905-1.998-1.542-2.274-4.312-.627-6.19a.903.903 0 00.208-.538c.02-1.098.008-2.196.01-3.293 0-.558.214-.77.789-.77 1.625-.003 3.251-.003 4.877 0 .575 0 .802.21.805.766.007 1.11-.007 2.22.01 3.33a.857.857 0 00.196.512c1.424 1.607 1.433 3.956.02 5.587a.92.92 0 00-.214.54c-.021.927-.01 1.854-.01 2.841.188 0 .345-.004.502.001.543.018.783.24.788.76.009.845.003 1.69.003 2.534v.421h.455c2.256 0 4.511.004 6.767-.005.22 0 .453-.042.655-.122 2.37-.935 4.735-1.88 7.101-2.824.6-.239.76-.2 1.15.283v1.086zm-22.337-5.705c1.069.798 2.878.612 3.954-.434 1.064-1.035 1.25-2.79.421-3.757l-4.375 4.191zm3.367-5.178c-1.256-.805-3.055-.567-4.085.537-.985 1.055-1.116 2.752-.305 3.658l4.39-4.195z"/><path d="M27.01 17.573c-.433 0-.81.005-1.187-.002-.495-.008-.747-.245-.75-.712-.006-.77-.006-1.542 0-2.314.002-.447.245-.7.72-.706 1.247-.012 2.493-.012 3.74 0 .45.005.707.247.717.678.017.795.019 1.59 0 2.386-.011.444-.283.661-.762.668-.375.005-.75.001-1.171.001v9.091c0 .48-.211.745-.601.772-.359.025-.64-.184-.688-.526-.02-.143-.017-.288-.017-.433v-8.904h-.002z"/></g><defs><clipPath id="clip0_54_1889"><path fill="#fff" transform="translate(7 12)" d="M0 0h31v21H0z"/></clipPath></defs></svg>