<svg width="45" height="45" viewBox="0 0 45 45" fill="none" xmlns="http://www.w3.org/2000/svg">
<rect x="1" y="1.25586" width="42.6867" height="42.6867" rx="9" stroke="#219B44" stroke-width="2"/>
<path d="M26.4657 34.7527H18.9411C18.8877 34.7375 18.8348 34.7139 18.7805 34.708C18.1911 34.6413 17.6002 34.5883 17.0123 34.5103C14.732 34.2067 12.674 32.2616 12.3079 29.9909C12.1253 28.8597 12.0117 27.7113 11.9578 26.5663C11.8761 24.8401 11.8741 23.1099 11.8389 21.3812C11.8384 21.3503 11.8477 21.3189 11.8555 21.2659C11.9343 21.287 12.0019 21.3042 12.069 21.3228C12.9629 21.572 13.8244 21.5288 14.6185 21.0049C14.7732 20.9029 14.8681 20.9156 15.0209 21.0093C16.2153 21.7417 17.426 21.8497 18.6371 21.0481C18.7683 20.9613 18.8363 21.0177 18.9342 21.0824C19.7018 21.5882 20.5389 21.8065 21.4392 21.5764C21.8871 21.4616 22.3081 21.2404 22.7413 21.0677C22.755 21.028 22.7888 21.0496 22.8221 21.0721C23.9896 21.8541 25.1807 21.859 26.3742 21.1491C26.5832 21.025 26.708 21.0128 26.9234 21.1418C28.0934 21.8423 29.2517 21.7074 30.3742 21.0167C30.547 20.9102 30.6498 20.9132 30.8177 21.0216C31.3748 21.3817 31.9911 21.5328 32.6539 21.4435C32.9555 21.4028 33.2536 21.3395 33.5752 21.2826C33.5752 21.3851 33.5752 21.4817 33.5752 21.5784C33.5796 23.7648 33.5659 25.9507 33.3447 28.1282C33.2698 28.8641 33.2061 29.6117 33.0201 30.323C32.3813 32.7654 30.3086 34.4171 27.7419 34.6055C27.3151 34.6369 26.8901 34.7031 26.4647 34.7527H26.4657ZM21.7006 28.0978C21.4401 27.855 21.2037 27.6426 20.9765 27.4204C20.7435 27.1928 20.5213 26.9534 20.2912 26.7223C19.7463 26.1749 18.9528 26.1587 18.4153 26.6816C17.8832 27.1991 17.8939 27.9585 18.4471 28.53C19.201 29.309 19.9544 30.088 20.7191 30.8567C20.8649 31.0034 21.0451 31.1412 21.2355 31.2119C21.7765 31.413 22.2547 31.282 22.6557 30.8611C24.0949 29.3507 25.5361 27.8418 26.9778 26.3333C27.5226 25.7633 27.5192 24.9916 26.9655 24.4633C26.4104 23.9335 25.6404 23.9566 25.0984 24.5237C24.4625 25.1898 23.8301 25.8594 23.1956 26.5266C22.6914 27.0574 22.1862 27.5872 21.7016 28.0968L21.7006 28.0978Z" fill="#219B44"/>
<path d="M35.2122 15.803V16.5864C35.1622 16.9553 35.0996 17.3228 35.0648 17.6926C34.9566 18.8327 34.3477 19.6087 33.3348 20.0802C32.4302 20.5011 31.4721 20.3559 30.9425 19.5558C30.8255 19.3787 30.5831 19.3625 30.4001 19.4959C30.3154 19.5577 30.2444 19.6387 30.1685 19.7127C29.2599 20.5982 27.7913 20.7846 26.9694 19.6387C26.8387 19.4567 26.5817 19.4562 26.4069 19.6112C26.2914 19.7137 26.192 19.8344 26.077 19.9379C25.2232 20.7071 24.0361 20.6919 23.2372 19.9036C22.8867 19.5579 22.5399 19.5569 22.1969 19.9006C21.3304 20.7699 20.0351 20.6938 19.128 19.7216C18.825 19.3968 18.6375 19.4057 18.355 19.7412C17.9012 20.2803 17.3275 20.5163 16.6221 20.4123C16.0342 20.3254 15.5583 20.035 15.1461 19.619C14.8485 19.3188 14.6414 19.3326 14.3859 19.6612C14.0775 20.0571 13.6717 20.2774 13.1748 20.3029C11.9784 20.3642 10.6821 19.3855 10.4446 18.2097C10.3227 17.6048 10.2841 16.9838 10.2013 16.3706C10.145 15.9527 10.2743 15.6304 10.5744 15.3194C12.2451 13.5867 14.0275 11.9762 15.8658 10.4256C16.4341 9.94633 17.0989 9.72951 17.8474 9.73147C21.0793 9.73834 24.3107 9.73981 27.5426 9.73049C28.3371 9.72803 29.0269 9.97625 29.6256 10.4864C31.3439 11.9512 33.024 13.4582 34.5983 15.0795C34.8181 15.3056 35.0085 15.5612 35.2122 15.803Z" fill="#219B44"/>
</svg>
