<svg width="45" height="45" viewBox="0 0 45 45" fill="none" xmlns="http://www.w3.org/2000/svg">
<rect x="1" y="1" width="43" height="43" rx="9" stroke="#219B44" stroke-width="2"/>
<g clip-path="url(#clip0_54_1876)">
<path d="M21.4067 36.9139C20.8919 36.8321 20.3752 36.7593 19.8624 36.6665C17.9431 36.3206 16.1759 35.5945 14.5485 34.5237C14.486 34.4825 14.4235 34.4419 14.3584 34.4045C14.343 34.3962 14.3185 34.4033 14.2702 34.4033C14.2702 34.5605 14.2727 34.7177 14.2702 34.8749C14.2579 35.4489 13.814 35.8838 13.2432 35.8844C12.6724 35.8844 12.2201 35.4482 12.2163 34.8755C12.2105 33.8363 12.2105 32.7965 12.2163 31.7573C12.2195 31.1774 12.6531 30.7458 13.2342 30.7426C14.2734 30.7374 15.3126 30.7368 16.3518 30.7426C16.9232 30.7464 17.3581 31.2013 17.3568 31.7727C17.3555 32.3435 16.92 32.7855 16.3447 32.7971C16.174 32.8003 16.0026 32.7971 15.7352 32.7971C15.9027 32.9118 15.9974 32.9852 16.0999 33.0458C18.3535 34.3775 20.7746 34.9979 23.3994 34.8053C28.8814 34.4026 33.5169 30.3644 34.5728 25.0209C34.7294 24.2271 34.7738 23.4096 34.8363 22.6004C34.8814 22.0225 35.1507 21.6095 35.6333 21.4974C36.1145 21.3853 36.5488 21.6056 36.8264 22.0998C36.8451 22.1326 36.8761 22.159 36.9012 22.1887V23.5391C36.8799 23.6428 36.8541 23.7452 36.8387 23.8496C36.7607 24.3779 36.7143 24.912 36.6055 25.4332C36.0907 27.902 35.007 30.0964 33.3371 31.9873C31.155 34.458 28.4472 36.0307 25.2033 36.6556C24.6492 36.7625 24.0874 36.8283 23.5295 36.9127H21.408L21.4067 36.9139Z" fill="#219B44"/>
<path d="M30.7294 10.6373C30.7294 10.4666 30.7262 10.2997 30.7294 10.1329C30.7435 9.56269 31.1926 9.13361 31.7692 9.13812C32.3239 9.14198 32.7781 9.57364 32.7826 10.1271C32.791 11.1772 32.7897 12.2274 32.7826 13.2775C32.7794 13.8361 32.3413 14.2755 31.7834 14.2793C30.7332 14.2864 29.6837 14.2871 28.6336 14.2793C28.0673 14.2748 27.6369 13.8103 27.6427 13.2356C27.6479 12.6803 28.0795 12.2396 28.6355 12.2261C28.8172 12.2216 28.9989 12.2254 29.2611 12.2254C29.1393 12.1326 29.0756 12.0747 29.004 12.0309C26.7382 10.6405 24.2848 10.0382 21.6266 10.2134C16.4016 10.5587 11.9143 14.2909 10.5768 19.351C10.3075 20.3702 10.1826 21.4075 10.1568 22.4582C10.1413 23.1128 9.71804 23.5483 9.1047 23.5406C8.521 23.5322 8.10159 23.0748 8.09965 22.4441C8.08484 16.6135 11.7739 11.2313 17.2308 9.10204C19.2267 8.32312 21.2922 7.9952 23.4228 8.12856C25.9728 8.28769 28.316 9.08851 30.4465 10.5033C30.509 10.5445 30.5715 10.5858 30.636 10.6238C30.6521 10.6328 30.6746 10.6302 30.7287 10.6373H30.7294Z" fill="#219B44"/>
<path d="M14.2714 18.3952C14.4048 18.4474 14.513 18.4841 14.6168 18.5305C16.9774 19.5793 19.336 20.6327 21.7004 21.6738C21.9195 21.7705 21.9923 21.8826 21.9916 22.1222C21.9826 24.8848 21.9858 27.6468 21.9858 30.4094V30.738C21.7584 30.6413 21.5548 30.5582 21.3545 30.4687C19.2587 29.5312 17.1674 28.5855 15.0658 27.6603C14.506 27.4136 14.2599 27.0386 14.2637 26.4201C14.2818 23.872 14.2714 21.324 14.2714 18.7753C14.2714 18.6587 14.2714 18.5427 14.2714 18.3945V18.3952Z" fill="#219B44"/>
<path d="M30.7277 18.3952C30.7277 19.8396 30.7277 21.2428 30.7277 22.646C30.7277 23.9532 30.7232 25.2604 30.7303 26.5683C30.7329 27.038 30.5357 27.3839 30.1176 27.5721C27.8002 28.6158 25.4776 29.6492 23.1564 30.6851C23.1196 30.7012 23.0791 30.7077 23.014 30.7264C23.014 30.6207 23.014 30.5376 23.014 30.4538C23.014 27.6674 23.014 24.8816 23.0127 22.0952C23.0127 21.9302 23.0127 21.8072 23.2118 21.7196C25.6671 20.6391 28.1165 19.5465 30.568 18.457C30.6053 18.4403 30.6446 18.4274 30.7284 18.3945L30.7277 18.3952Z" fill="#219B44"/>
<path d="M30.1913 17.5121C28.4177 18.3001 26.7097 19.0577 25.0024 19.8166C24.2512 20.151 23.5032 20.4931 22.7475 20.8165C22.6258 20.8687 22.4467 20.8906 22.332 20.8404C19.867 19.7561 17.4079 18.6596 14.9474 17.5649C14.9217 17.5534 14.8998 17.534 14.8398 17.4941C15.0376 17.4039 15.2077 17.3234 15.3804 17.2493C17.5683 16.3061 19.7581 15.3654 21.9441 14.4184C22.2972 14.2657 22.6316 14.2367 22.9943 14.3939C25.3265 15.4047 27.662 16.4066 29.9961 17.4123C30.0419 17.4322 30.0857 17.458 30.192 17.5128L30.1913 17.5121Z" fill="#219B44"/>
</g>
<defs>
<clipPath id="clip0_54_1876">
<rect width="28.8005" height="28.8153" fill="white" transform="translate(8.09961 8.09961)"/>
</clipPath>
</defs>
</svg>
