<svg width="45" height="45" viewBox="0 0 45 45" fill="none" xmlns="http://www.w3.org/2000/svg">
<rect x="1" y="1" width="43" height="43" rx="9" stroke="#219B44" stroke-width="2"/>
<g clip-path="url(#clip0_54_1889)">
<path d="M37.9996 27.7126C37.9405 27.9188 37.8897 28.1278 37.8208 28.3304C37.4646 29.3677 36.7924 30.1633 35.7435 30.5974C33.8072 31.3988 31.8519 32.1596 29.9012 32.9298C29.7564 32.9871 29.5829 32.998 29.423 32.998C22.8706 33.0009 16.3182 33.0031 9.76579 32.9995C8.10988 32.9987 7.00341 31.9258 7.00114 30.3382C6.99962 29.4338 6.99962 28.5293 7.00114 27.6241C7.00189 27.0455 7.21713 26.8263 7.80598 26.8212C8.57444 26.8147 9.34366 26.8139 10.1121 26.8212C10.6608 26.827 10.8889 27.0462 10.898 27.5761C10.9079 28.13 10.9003 28.6832 10.9003 29.2661H15.3928V28.8254C15.3928 28.0291 15.3928 27.2335 15.3928 26.4372C15.3928 25.7744 15.5891 25.5893 16.2947 25.5777C16.4061 25.5762 16.5183 25.5683 16.6539 25.5625V23.6983C15.8673 23.5611 15.1443 23.2787 14.5153 22.7931C12.5168 21.2512 12.2409 18.4812 13.8885 16.6032C14.0105 16.4638 14.0931 16.2468 14.0962 16.0646C14.1151 14.967 14.1045 13.8694 14.106 12.7718C14.1068 12.2136 14.3205 12.0024 14.8949 12.0016C16.5205 11.9995 18.1461 11.9995 19.7717 12.0016C20.3469 12.0024 20.5735 12.2121 20.5766 12.7682C20.5841 13.8781 20.5705 14.9873 20.5879 16.0972C20.591 16.2707 20.6668 16.4791 20.7827 16.6105C22.2075 18.2169 22.2158 20.566 20.8032 22.1971C20.6804 22.3387 20.5932 22.5535 20.5887 22.7365C20.5675 23.6635 20.5788 24.5905 20.5788 25.5784C20.7668 25.5784 20.9244 25.5741 21.0813 25.5791C21.6239 25.5973 21.8642 25.8194 21.8695 26.3399C21.8778 27.1841 21.8717 28.0284 21.8717 28.8726C21.8717 29.0011 21.8717 29.1296 21.8717 29.2944H22.3272C24.5826 29.2944 26.838 29.298 29.0941 29.2893C29.3131 29.2886 29.5465 29.2472 29.7489 29.1673C32.1187 28.2324 34.4839 27.2865 36.85 26.3435C37.4509 26.104 37.6108 26.1432 37.9996 26.6259V27.7119V27.7126ZM15.6626 22.0084C16.732 22.8062 18.541 22.6203 19.6171 21.5735C20.6812 20.5391 20.8661 18.7831 20.0385 17.8169C18.5864 19.2078 17.1314 20.6015 15.6626 22.0084ZM19.0305 16.8297C17.774 16.0254 15.9749 16.2628 14.945 17.3669C13.9597 18.4224 13.8294 20.1188 14.6403 21.0248C16.0961 19.6332 17.5542 18.2401 19.0305 16.8297Z" fill="#219B44"/>
<path d="M27.0094 17.5727C26.5767 17.5727 26.2 17.5778 25.8234 17.5713C25.3285 17.5633 25.0761 17.3259 25.0723 16.8591C25.067 16.0882 25.067 15.3166 25.0723 14.5449C25.0754 14.0978 25.3179 13.8444 25.7931 13.8393C27.0397 13.827 28.2856 13.827 29.5323 13.8393C29.9832 13.8437 30.2401 14.0861 30.25 14.5166C30.2674 15.3115 30.2689 16.1078 30.25 16.9027C30.2386 17.347 29.9673 17.564 29.4876 17.5713C29.1125 17.5763 28.7373 17.572 28.3167 17.572C28.3167 17.7411 28.3167 17.8812 28.3167 18.0221C28.3167 20.9025 28.3167 23.7829 28.3167 26.6634C28.3167 27.1425 28.106 27.4081 27.7157 27.435C27.3573 27.4604 27.0769 27.2513 27.0284 26.9087C27.0079 26.7664 27.0109 26.6205 27.0109 26.4761C27.0102 23.6682 27.0109 20.8597 27.0109 18.0518V17.572L27.0094 17.5727Z" fill="#219B44"/>
</g>
<defs>
<clipPath id="clip0_54_1889">
<rect width="31" height="21" fill="white" transform="translate(7 12)"/>
</clipPath>
</defs>
</svg>
