<svg width="45" height="45" viewBox="0 0 45 45" fill="none" xmlns="http://www.w3.org/2000/svg">
<rect x="1" y="1" width="42.6867" height="42.6867" rx="9" stroke="#219B44" stroke-width="2"/>
<path d="M26.4657 34.4988H18.9411C18.8877 34.4835 18.8348 34.46 18.7805 34.4541C18.1911 34.3874 17.6002 34.3344 17.0123 34.2564C14.732 33.9528 12.674 32.0077 12.3079 29.737C12.1253 28.6057 12.0117 27.4574 11.9578 26.3124C11.8761 24.5862 11.8741 22.856 11.8389 21.1273C11.8384 21.0964 11.8477 21.065 11.8555 21.012C11.9343 21.0331 12.0019 21.0503 12.069 21.0689C12.9629 21.3181 13.8244 21.2749 14.6185 20.751C14.7732 20.649 14.8681 20.6617 15.0209 20.7554C16.2153 21.4878 17.426 21.5958 18.6371 20.7942C18.7683 20.7074 18.8363 20.7638 18.9342 20.8285C19.7018 21.3343 20.5389 21.5526 21.4392 21.3225C21.8871 21.2077 22.3081 20.9865 22.7413 20.8138C22.755 20.7741 22.7888 20.7957 22.8221 20.8182C23.9896 21.6002 25.1807 21.6051 26.3742 20.8952C26.5832 20.7711 26.708 20.7589 26.9234 20.8879C28.0934 21.5884 29.2517 21.4535 30.3742 20.7628C30.547 20.6563 30.6498 20.6593 30.8177 20.7677C31.3748 21.1278 31.9911 21.2789 32.6539 21.1896C32.9555 21.1489 33.2536 21.0856 33.5752 21.0287C33.5752 21.1312 33.5752 21.2278 33.5752 21.3245C33.5796 23.5109 33.5659 25.6968 33.3447 27.8743C33.2698 28.6102 33.2061 29.3578 33.0201 30.0691C32.3813 32.5115 30.3086 34.1632 27.7419 34.3516C27.3151 34.383 26.8901 34.4492 26.4647 34.4988H26.4657ZM21.7006 27.8439C21.4401 27.6011 21.2037 27.3887 20.9765 27.1665C20.7435 26.9388 20.5213 26.6995 20.2912 26.4684C19.7463 25.921 18.9528 25.9048 18.4153 26.4277C17.8832 26.9452 17.8939 27.7046 18.4471 28.2761C19.201 29.0551 19.9544 29.8341 20.7191 30.6028C20.8649 30.7495 21.0451 30.8873 21.2355 30.9579C21.7765 31.1591 22.2547 31.0281 22.6557 30.6072C24.0949 29.0968 25.5361 27.5878 26.9778 26.0794C27.5226 25.5094 27.5192 24.7377 26.9655 24.2094C26.4104 23.6796 25.6404 23.7027 25.0984 24.2698C24.4625 24.9359 23.8301 25.6055 23.1956 26.2727C22.6914 26.8035 22.1862 27.3333 21.7016 27.8429L21.7006 27.8439Z" fill="#219B44"/>
<path d="M35.2122 15.5472V16.3306C35.1622 16.6995 35.0996 17.0669 35.0648 17.4368C34.9566 18.5768 34.3477 19.3529 33.3348 19.8243C32.4302 20.2452 31.4721 20.1 30.9425 19.2999C30.8255 19.1228 30.5831 19.1066 30.4001 19.2401C30.3154 19.3019 30.2444 19.3828 30.1685 19.4569C29.2599 20.3423 27.7913 20.5287 26.9694 19.3828C26.8387 19.2008 26.5817 19.2003 26.4069 19.3553C26.2914 19.4579 26.192 19.5785 26.077 19.682C25.2232 20.4512 24.0361 20.436 23.2372 19.6477C22.8867 19.302 22.5399 19.301 22.1969 19.6448C21.3304 20.514 20.0351 20.438 19.128 19.4657C18.825 19.141 18.6375 19.1498 18.355 19.4853C17.9012 20.0244 17.3275 20.2604 16.6221 20.1564C16.0342 20.0696 15.5583 19.7792 15.1461 19.3632C14.8485 19.063 14.6414 19.0767 14.3859 19.4054C14.0775 19.8012 13.6717 20.0215 13.1748 20.047C11.9784 20.1083 10.6821 19.1297 10.4446 17.9538C10.3227 17.349 10.2841 16.7279 10.2013 16.1147C10.145 15.6968 10.2743 15.3745 10.5744 15.0635C12.2451 13.3309 14.0275 11.7204 15.8658 10.1697C16.4341 9.69047 17.0989 9.47365 17.8474 9.47561C21.0793 9.48248 24.3107 9.48395 27.5426 9.47463C28.3371 9.47217 29.0269 9.72039 29.6256 10.2306C31.3439 11.6954 33.024 13.2023 34.5983 14.8236C34.8181 15.0498 35.0085 15.3053 35.2122 15.5472Z" fill="#219B44"/>
</svg>
